<?xml version="1.0" encoding="utf-8"?>
<!-- Generator: Adobe Illustrator 21.0.0, SVG Export Plug-In . SVG Version: 6.00 Build 0)  -->
<svg version="1.1" id="Layer_1" xmlns="http://www.w3.org/2000/svg" xmlns:xlink="http://www.w3.org/1999/xlink" x="0px" y="0px"
	 viewBox="0 0 512 512" style="enable-background:new 0 0 512 512;" xml:space="preserve">
<style type="text/css">
	.st0{fill:#B3DDD4;}
	.st1{fill:#4AB8A1;}
	.st2{fill:#6B6B6F;}
	.st3{fill:#6A535C;}
	.st4{fill:#1A1A1A;}
	.st5{fill:#242424;}
	.st6{fill:#96E6D9;}
	.st7{opacity:0.3;fill:#4AB8A1;enable-background:new    ;}
	.st8{opacity:0.2;fill:#4AB8A1;enable-background:new    ;}
</style>
<circle class="st0" cx="256" cy="256" r="256"/>
<path class="st1" d="M498.5,338.2c-0.2-0.5-0.4-0.9-0.6-1.4c-0.3-0.7-0.6-1.4-0.8-2.1c-0.3-0.7-0.5-1.4-0.8-2
	c-0.3-0.7-0.5-1.4-0.8-2.1c-0.3-0.7-0.5-1.4-0.8-2c-0.3-0.7-0.5-1.4-0.8-2c-0.3-0.7-0.5-1.4-0.8-2.1c-0.3-0.7-0.5-1.4-0.8-2
	c-0.3-0.7-0.5-1.4-0.8-2.1c-0.3-0.7-0.5-1.4-0.8-2c-0.3-0.7-0.5-1.4-0.8-2.1c-0.3-0.7-0.5-1.4-0.8-2c-0.3-0.7-0.5-1.4-0.8-2
	c-0.3-0.7-0.5-1.4-0.8-2c-0.3-0.7-0.5-1.4-0.8-2.1c-0.3-0.7-0.5-1.4-0.8-2c-0.3-0.7-0.6-1.4-0.8-2.1c-0.3-0.7-0.5-1.4-0.8-2
	c-0.3-0.7-0.5-1.4-0.8-2.1c-0.3-0.7-0.5-1.4-0.8-2c-0.3-0.7-0.5-1.4-0.8-2.1c-0.3-0.7-0.5-1.4-0.8-2c-0.3-0.7-0.5-1.4-0.8-2
	c-0.3-0.7-0.5-1.4-0.8-2.1c-0.3-0.7-0.5-1.4-0.8-2.1c-0.3-0.7-0.5-1.4-0.8-2c-0.3-0.7-0.5-1.4-0.8-2.1c-0.3-0.7-0.5-1.4-0.8-2
	c-0.3-0.7-0.5-1.4-0.8-2.1c-0.3-0.7-0.5-1.4-0.8-2c-0.3-0.7-0.6-1.4-0.8-2.1c-0.3-0.7-0.5-1.4-0.8-2.1c-0.3-0.7-0.5-1.4-0.8-2
	c-0.3-0.7-0.5-1.4-0.8-2c-0.3-0.7-0.5-1.4-0.8-2.1c-0.3-0.7-0.5-1.4-0.8-2c-0.3-0.7-0.5-1.4-0.8-2c-0.3-0.7-0.5-1.4-0.8-2.1
	c-0.3-0.7-0.5-1.4-0.8-2c-0.3-0.7-0.5-1.4-0.8-2.1c-0.3-0.7-0.5-1.4-0.8-2c-0.3-0.7-0.5-1.4-0.8-2c-0.3-0.7-0.5-1.4-0.8-2
	c-0.3-0.7-0.5-1.4-0.8-2c-0.3-0.7-0.5-1.4-0.8-2.1c-0.3-0.7-0.6-1.4-0.8-2c-0.3-0.7-0.6-1.4-0.8-2c-0.3-0.7-0.6-1.4-0.8-2.1
	c-0.3-0.7-0.6-1.4-0.8-2.1c-0.3-0.7-0.6-1.4-0.8-2c-0.3-0.7-0.6-1.4-0.8-2.1c-0.3-0.7-0.5-1.3-0.8-2c-0.3-0.7-0.6-1.4-0.8-2.1
	c-0.3-0.7-0.5-1.4-0.8-2c-12.1-31-41.1-53.5-75.8-55.9c-8.9-5.2-19.2-8.3-30.3-8.3c-1.3,0-2.7,0.1-4,0.1h0
	c-22.1,0-40.8,14.9-50,33.8c-7.6-13.1-21.8-21.9-38-21.9c-16.2,0-30.4,8.9-38,22c-9.7-20.1-30.2-34-54-34c-1.3,0-2.7,0.1-4,0.1h0
	c-9.5,0-18.5,3.6-26.3,8.1C88.1,175.3,52,213.4,52,259.9c0,9.9,1.7,19.4,4.7,28.3c1,3.2,2.1,6.3,3.4,9.3c0.5,1.4,1.1,2.8,1.7,4.1
	c0.5,1.4,1.1,2.7,1.7,4.1c0.5,1.4,1.1,2.7,1.7,4.1c0.5,1.4,1.1,2.7,1.6,4.1c0.5,1.4,1.1,2.8,1.7,4.1c0.5,1.4,1.1,2.7,1.7,4.1
	c0.5,1.4,1.1,2.7,1.7,4.1c0.5,1.4,1.1,2.7,1.6,4.1c0.5,1.4,1.1,2.8,1.7,4.1c0.5,1.4,1.1,2.8,1.7,4.1c0.5,1.4,1.1,2.7,1.6,4
	c0.5,1.4,1.1,2.8,1.7,4.1c0.5,1.4,1.1,2.7,1.7,4.1c0.5,1.4,1.1,2.8,1.7,4.1c0.5,1.4,1.1,2.7,1.6,4c0.5,1.4,1.1,2.8,1.7,4.1
	c0.4,1.2,0.9,2.3,1.4,3.5c0.8,2.4,1.7,4.8,2.7,7.1c0.5,1.4,1.1,2.8,1.7,4.1c0.5,1.4,1.1,2.7,1.7,4.1c0.5,1.4,1.1,2.7,1.7,4.1
	c0.5,1.4,1.1,2.7,1.6,4c0.5,1.4,1.1,2.8,1.7,4.1c0.5,1.4,1.1,2.7,1.6,4.1c0.5,1.4,1.1,2.7,1.6,4c0.5,1.4,1.1,2.8,1.7,4.1
	c0.5,1.4,1.1,2.7,1.7,4.1c0.5,1.4,1.1,2.7,1.7,4.1c0.5,1.4,1.1,2.7,1.6,4c0.5,1.4,1.1,2.8,1.7,4.1c0.5,1.4,1.1,2.7,1.7,4.1
	c0.5,1.4,1.1,2.7,1.7,4.1c0.5,1.4,1.1,2.7,1.6,4.1c0.4,1.2,0.9,2.4,1.4,3.5c0.8,2.4,1.7,4.8,2.7,7.1c0.5,1.4,1.1,2.7,1.6,4
	c0.5,1.4,1.1,2.8,1.7,4.1c0.5,1.4,1.1,2.7,1.6,4.1c0.5,1.4,1.1,2.7,1.6,4.1c0.5,1.4,1.1,2.8,1.7,4.1c0.5,1.4,1.1,2.7,1.7,4.1
	c0.5,1.4,1.1,2.8,1.7,4.1c0.5,1.4,1.1,2.7,1.6,4c0.5,1.2,1,2.4,1.5,3.6C170.6,500.9,212,512,256,512
	C368.6,512,464.2,439.2,498.5,338.2z"/>
<circle class="st2" cx="164" cy="224" r="60"/>
<path class="st3" d="M164,164c-1.3,0-2.7,0.1-4,0.2c31.3,2.1,56,28,56,59.8s-24.7,57.7-56,59.8c1.3,0.1,2.7,0.2,4,0.2
	c33.1,0,60-26.9,60-60S197.1,164,164,164z"/>
<path class="st2" d="M164,276c-28.7,0-52-23.3-52-52s23.3-52,52-52s52,23.3,52,52S192.7,276,164,276z"/>
<circle class="st3" cx="348" cy="224" r="60"/>
<path class="st2" d="M348,164c-1.3,0-2.7,0.1-4,0.2c31.3,2.1,56,28,56,59.8s-24.7,57.7-56,59.8c1.3,0.1,2.7,0.2,4,0.2
	c33.1,0,60-26.9,60-60S381.1,164,348,164z"/>
<path class="st2" d="M348,276c28.7,0,52-23.3,52-52s-23.3-52-52-52s-52,23.3-52,52S319.3,276,348,276z"/>
<circle class="st4" cx="256" cy="220" r="44"/>
<path class="st5" d="M256,256c-19.8,0-36-16.2-36-36s16.2-36,36-36s36,16.2,36,36S275.8,256,256,256z"/>
<path class="st3" d="M256,200c-12,0-32,16-52,0c0,20,0,80,0,96c8,0,24-36,52-36s44,36,52,36c0-16,0-76,0-96C288,216,268,200,256,200
	z"/>
<circle class="st4" cx="256" cy="220" r="12"/>
<circle class="st3" cx="140" cy="260" r="88"/>
<path class="st2" d="M140,340c-44.1,0-80-35.9-80-80c0-44.1,35.9-80,80-80s80,35.9,80,80C220,304.1,184.1,340,140,340z"/>
<path class="st6" d="M140,336c-41.9,0-76-34.1-76-76s34.1-76,76-76s76,34.1,76,76S181.9,336,140,336z"/>
<path class="st7" d="M179.5,253.7l31.6-5.1c-4.9-30.6-29.1-54.8-59.7-59.7l-5.1,31.6C163.3,223.3,176.7,236.7,179.5,253.7z"/>
<path class="st8" d="M103.3,244.2L74,231.5c-12.3,28.4-4.8,61.8,18.4,82.3l21.2-23.9C100.6,278.5,96.5,260,103.3,244.2z"/>
<circle class="st3" cx="372" cy="260" r="88"/>
<path class="st2" d="M372,172c-1.3,0-2.7,0-4,0.1c46.7,2.1,84,40.6,84,87.9c0,47.3-37.3,85.8-84,87.9c1.3,0.1,2.7,0.1,4,0.1
	c48.6,0,88-39.4,88-88S420.6,172,372,172z"/>
<path class="st2" d="M372,340c-44.1,0-80-35.9-80-80c0-44.1,35.9-80,80-80s80,35.9,80,80C452,304.1,416.1,340,372,340z"/>
<path class="st6" d="M372,336c-41.9,0-76-34.1-76-76s34.1-76,76-76s76,34.1,76,76S413.9,336,372,336z"/>
<path class="st7" d="M411.5,253.7l31.6-5.1c-4.9-30.6-29.1-54.8-59.7-59.7l-5.1,31.6C395.3,223.3,408.7,236.7,411.5,253.7z"/>
<path class="st8" d="M335.3,244.2L306,231.5c-12.3,28.4-4.8,61.8,18.4,82.3l21.2-23.9C332.6,278.5,328.5,260,335.3,244.2z"/>
</svg>
